<svg width="14" height="20" viewBox="0 0 14 20" fill="none" xmlns="http://www.w3.org/2000/svg">
<path d="M9.75861 10.2573C9.83159 10.3303 9.86808 10.4142 9.86808 10.5091C9.86808 10.6039 9.83159 10.6879 9.75861 10.7608L4.65735 15.8621C4.58437 15.9351 4.50045 15.9716 4.40557 15.9716C4.3107 15.9716 4.22677 15.9351 4.15379 15.8621L3.60645 15.3147C3.53347 15.2418 3.49698 15.1578 3.49698 15.063C3.49698 14.9681 3.53347 14.8842 3.60645 14.8112L7.90858 10.5091L3.60645 6.20692C3.53347 6.13394 3.49698 6.05001 3.49698 5.95514C3.49698 5.86026 3.53347 5.77634 3.60645 5.70336L4.15379 5.15601C4.22677 5.08303 4.3107 5.04654 4.40557 5.04654C4.50045 5.04654 4.58437 5.08303 4.65735 5.15601L9.75861 10.2573Z" fill="#0B1A29"/>
</svg>
