<svg width="8" height="13" viewBox="0 0 8 13" fill="none" xmlns="http://www.w3.org/2000/svg">
<path d="M6.95434 1.65073C7.01073 1.59504 7.05481 1.52953 7.08407 1.45794C7.11333 1.38635 7.1272 1.31008 7.12488 1.23348C7.12255 1.15689 7.10409 1.08147 7.07054 1.01154C7.03699 0.941608 6.98901 0.878526 6.92935 0.825899C6.86968 0.773272 6.79948 0.732129 6.72278 0.70482C6.64607 0.677511 6.56436 0.664571 6.48229 0.666737C6.40023 0.668904 6.31943 0.686136 6.2445 0.717448C6.16957 0.748761 6.10198 0.793541 6.04559 0.849233L0.733095 6.09923C0.623385 6.20754 0.562256 6.35093 0.562256 6.49998C0.562256 6.64903 0.623385 6.79243 0.733095 6.90073L6.04559 12.1513C6.10161 12.2082 6.16918 12.2542 6.24439 12.2865C6.31959 12.3188 6.40093 12.3369 6.48367 12.3397C6.56642 12.3424 6.64893 12.3298 6.7264 12.3025C6.80387 12.2752 6.87477 12.2339 6.93497 12.1808C6.99517 12.1278 7.04347 12.0641 7.07708 11.9934C7.11068 11.9228 7.12891 11.8466 7.13072 11.7694C7.13252 11.6921 7.11786 11.6153 7.08758 11.5434C7.0573 11.4714 7.01201 11.4059 6.95434 11.3504L2.04684 6.49998L6.95434 1.65073Z" fill="#0B1A29"/>
</svg>
