<svg width="14" height="20" viewBox="0 0 14 20" fill="none" xmlns="http://www.w3.org/2000/svg">
<path d="M9.75862 10.2573C9.8316 10.3303 9.86809 10.4142 9.86809 10.5091C9.86809 10.6039 9.8316 10.6879 9.75862 10.7608L4.65736 15.8621C4.58438 15.9351 4.50046 15.9716 4.40558 15.9716C4.31071 15.9716 4.22678 15.9351 4.1538 15.8621L3.60646 15.3147C3.53348 15.2418 3.49699 15.1578 3.49699 15.063C3.49699 14.9681 3.53348 14.8842 3.60646 14.8112L7.90859 10.5091L3.60646 6.20692C3.53348 6.13394 3.49699 6.05001 3.49699 5.95514C3.49699 5.86026 3.53348 5.77634 3.60646 5.70336L4.1538 5.15601C4.22678 5.08303 4.31071 5.04654 4.40558 5.04654C4.50046 5.04654 4.58438 5.08303 4.65736 5.15601L9.75862 10.2573Z" fill="#0B1A29"/>
</svg>
