<svg width="8" height="13" viewBox="0 0 8 13" fill="none" xmlns="http://www.w3.org/2000/svg">
<path d="M1.63657 10.6566C1.59146 10.7044 1.5562 10.7605 1.53279 10.8219C1.50938 10.8832 1.49829 10.9486 1.50015 11.0143C1.50201 11.0799 1.51678 11.1446 1.54362 11.2045C1.57046 11.2644 1.60884 11.3185 1.65657 11.3636C1.70431 11.4087 1.76046 11.444 1.82183 11.4674C1.88319 11.4908 1.94857 11.5019 2.01422 11.5C2.07987 11.4982 2.14451 11.4834 2.20445 11.4566C2.2644 11.4297 2.31846 11.3914 2.36357 11.3436L6.61357 6.84362C6.70134 6.75078 6.75024 6.62787 6.75024 6.50012C6.75024 6.37236 6.70134 6.24945 6.61357 6.15662L2.36357 1.65612C2.31876 1.60734 2.2647 1.56795 2.20454 1.54023C2.14438 1.51252 2.07931 1.49704 2.01311 1.49469C1.94691 1.49234 1.88091 1.50316 1.81893 1.52654C1.75695 1.54991 1.70023 1.58536 1.65207 1.63084C1.60391 1.67632 1.56527 1.73091 1.53839 1.79145C1.5115 1.85199 1.49692 1.91726 1.49548 1.98349C1.49403 2.04971 1.50576 2.11556 1.52999 2.17721C1.55421 2.23886 1.59044 2.29509 1.63657 2.34262L5.56257 6.50012L1.63657 10.6566Z" fill="#0B1A29"/>
</svg>
