<svg width="33" height="32" viewBox="0 0 33 32" fill="none" xmlns="http://www.w3.org/2000/svg">
<path d="M25.28 19.2899L21.99 22.5899L20.7 21.2899C20.5117 21.1016 20.2563 20.9958 19.99 20.9958C19.7237 20.9958 19.4683 21.1016 19.28 21.2899C19.0917 21.4782 18.9859 21.7337 18.9859 22C18.9859 22.2663 19.0917 22.5216 19.28 22.7099L21.28 24.7099C21.373 24.8037 21.4836 24.8781 21.6054 24.9289C21.7273 24.9797 21.858 25.0057 21.99 25.0057C22.122 25.0057 22.2527 24.9797 22.3746 24.9289C22.4964 24.8781 22.607 24.8037 22.7 24.7099L26.7 20.7099C26.7932 20.6167 26.8672 20.506 26.9177 20.3842C26.9681 20.2624 26.9941 20.1319 26.9941 20C26.9941 19.8682 26.9681 19.7375 26.9177 19.6157C26.8672 19.4939 26.7932 19.3832 26.7 19.2899C26.6068 19.1967 26.4961 19.1227 26.3743 19.0723C26.2524 19.0218 26.1219 18.9958 25.99 18.9958C25.8581 18.9958 25.7276 19.0218 25.6058 19.0723C25.4839 19.1227 25.3732 19.1967 25.28 19.2899Z" fill="#00264C"/>
<path d="M22.99 14C21.4078 14 19.861 14.4692 18.5454 15.3482C17.2298 16.2273 16.2045 17.4767 15.599 18.9385C14.9935 20.4003 14.835 22.0089 15.1437 23.5607C15.4524 25.1126 16.2143 26.538 17.3331 27.6569C18.452 28.7757 19.8774 29.5376 21.4293 29.8463C22.9811 30.155 24.5897 29.9965 26.0515 29.391C27.5133 28.7855 28.7627 27.7602 29.6418 26.4446C30.5208 25.129 30.99 23.5823 30.99 22C30.99 19.8783 30.1471 17.8434 28.6469 16.3431C27.1466 14.8429 25.1117 14 22.99 14ZM22.99 28C21.8033 28 20.6433 27.6481 19.6566 26.9888C18.6699 26.3295 17.9009 25.3925 17.4467 24.2961C16.9926 23.1997 16.8738 21.9933 17.1053 20.8295C17.3368 19.6656 17.9082 18.5965 18.7474 17.7574C19.5865 16.9182 20.6556 16.3468 21.8195 16.1153C22.9833 15.8838 24.1897 16.0026 25.2861 16.4567C26.3825 16.9108 27.3195 17.6799 27.9788 18.6666C28.6381 19.6533 28.99 20.8133 28.99 22C28.99 23.5913 28.3579 25.1174 27.2326 26.2426C26.1074 27.3679 24.5813 28 22.99 28Z" fill="#00264C"/>
<path d="M26.99 2H6.98999C5.92912 2 4.91171 2.42143 4.16156 3.17157C3.41142 3.92172 2.98999 4.93913 2.98999 6V26C2.98999 27.0609 3.41142 28.0783 4.16156 28.8284C4.91171 29.5786 5.92912 30 6.98999 30H14.99C15.2552 30 15.5096 29.8946 15.6971 29.7071C15.8846 29.5196 15.99 29.2652 15.99 29C15.99 28.7348 15.8846 28.4804 15.6971 28.2929C15.5096 28.1054 15.2552 28 14.99 28H6.98999C6.45956 28 5.95085 27.7893 5.57578 27.4142C5.2007 27.0391 4.98999 26.5304 4.98999 26V6C4.98999 5.46957 5.2007 4.96086 5.57578 4.58579C5.95085 4.21071 6.45956 4 6.98999 4H11.99V11C11.991 11.1974 12.0504 11.3901 12.1607 11.5539C12.2711 11.7176 12.4274 11.845 12.61 11.92C12.7921 11.9966 12.9928 12.0175 13.1868 11.9801C13.3808 11.9428 13.5594 11.8488 13.7 11.71L14.99 10.41L16.28 11.71C16.373 11.8037 16.4836 11.8781 16.6054 11.9289C16.7273 11.9797 16.858 12.0058 16.99 12.0058C17.122 12.0058 17.2527 11.9797 17.3746 11.9289C17.4964 11.8781 17.607 11.8037 17.7 11.71L18.99 10.41L20.28 11.71C20.3734 11.8027 20.4843 11.876 20.6061 11.9258C20.7279 11.9755 20.8584 12.0008 20.99 12C21.1212 12.0034 21.2513 11.976 21.37 11.92C21.5526 11.845 21.7089 11.7176 21.8193 11.5539C21.9296 11.3901 21.989 11.1974 21.99 11V4H26.99C27.5204 4 28.0291 4.21071 28.4042 4.58579C28.7793 4.96086 28.99 5.46957 28.99 6V14C28.99 14.2652 29.0954 14.5196 29.2829 14.7071C29.4704 14.8946 29.7248 15 29.99 15C30.2552 15 30.5096 14.8946 30.6971 14.7071C30.8846 14.5196 30.99 14.2652 30.99 14V6C30.99 4.93913 30.5686 3.92172 29.8184 3.17157C29.0683 2.42143 28.0509 2 26.99 2ZM19.99 8.59L19.7 8.29C19.607 8.19627 19.4964 8.12188 19.3746 8.07111C19.2527 8.02034 19.122 7.9942 18.99 7.9942C18.858 7.9942 18.7273 8.02034 18.6054 8.07111C18.4836 8.12188 18.373 8.19627 18.28 8.29L16.99 9.59L15.7 8.29C15.607 8.19627 15.4964 8.12188 15.3746 8.07111C15.2527 8.02034 15.122 7.9942 14.99 7.9942C14.858 7.9942 14.7273 8.02034 14.6054 8.07111C14.4836 8.12188 14.373 8.19627 14.28 8.29L13.99 8.59V4H19.99V8.59Z" fill="#00264C"/>
</svg>
